<svg id="Layer_1" data-name="Layer 1" xmlns="http://www.w3.org/2000/svg" viewBox="0 0 141.43 177.8"><defs><style>.cls-1{fill:#0c0d0b;}.cls-2{fill:#fef6da;}.cls-3{fill:#807c64;}.cls-4{fill:#0d0c0c;}.cls-5{fill:#fdfdfd;}.cls-6{fill:#efefee;}.cls-7{fill:#f2f1f2;}.cls-8{fill:#343430;}.cls-9{fill:#373124;}.cls-10{fill:#878574;}.cls-11{fill:#fc2c51;}.cls-12{fill:#4b070a;}.cls-13{fill:#55080e;}.cls-14{fill:#fabe31;}</style></defs><path class="cls-1" d="M97.48,8c6.28-3.83,13.94-4.16,21.06-3.4a28.43,28.43,0,0,1,19.28,12c2.15,3.08,2.4,6.94,3.81,10.32,4.16,3.36,10,5.33,12.08,10.72,2.49,5,2,10.61,1.08,15.9,6.3,4,12.2,9.76,13.26,17.48.54,5.86.22,12.78-4.49,17-2.16,2.46-6.05,4.14-5.9,7.92-.41,6-1.68,12.54-6.14,17-3.61,3.36-8,6.14-12.86,7.09-2.06.58-4.38.61-6.2,1.82-2.05,2.76-3.22,6-5.18,8.88-3,4.63-7.86,7.6-10.61,12.39-2.1,3-4.16,7.21-8.3,7.47-4.53.77-6.59-4.14-9.88-6.2-1.46.17-1.9,1.86-2.67,2.88-2.76,5.1-5,10.44-7.44,15.7l-5.78-.8c-2.36,6.48-3.29,13.35-5.56,19.86-7-12.33-11.52-26.31-11-40.61,2.39.45,4.78.94,7.17,1.37,0-2.14-.08-4.28-.14-6.42a38,38,0,0,1-15.9-24c-6.34.24-13.25-.52-18.18-4.94-7-6.3-8.65-16.69-6.26-25.46a29.91,29.91,0,0,0,1.41-5.78c-2.1-3.14-5.45-5.55-6.38-9.38-1.19-4.54-1-9.34-.6-14C28.87,41.78,39.89,33.16,51.2,34.42c1.72-4,3.12-8.31,6.09-11.61A28.69,28.69,0,0,1,79.5,13.24c3.6-.11,7.09.92,10.65,1.24C92.74,12.5,94.57,9.62,97.48,8ZM93.06,19.57c-2.84,3.67-4,8.26-5.94,12.39-1.61-3.93-.67-8.21-.68-12.32-5.76-.9-12-2-17.42.87-5.81,3.11-10.92,8.87-11.4,15.67a18.77,18.77,0,0,1,7.11,5.42c-5.28-1.53-10.68-3.93-16.29-2.75-5.26.67-9.42,4.5-12.31,8.71s-2.72,9.53-2.31,14.37C35,70.23,41.7,77.64,50.16,78.88c-3.16,2.07-6.82.93-10.29.77-.66,1-1.21,2-1.8,3-.33,3.09-1.1,6.18-.78,9.31a18.65,18.65,0,0,0,7.56,12.57c3.33,2.18,7.47,2,11.28,2.13a49.29,49.29,0,0,1,1.6-13.83c.83,7.43,1.38,15.13,4.91,21.88,2.87,6.93,8.19,12.45,14,17.06,5.89,4.43,13.26,6.27,20.52,6.63-.24-2.63-.28-5.36-1.32-7.83-3.09-3-7.26-4.6-10.37-7.58a59.81,59.81,0,0,1-14.26-22.48c-2.32-6.25-2.63-13-3.3-19.52-1.94-.73-3.86-1.5-5.74-2.36a42.74,42.74,0,0,0,18.25-3.57q-1.35,2-2.73,4a70.54,70.54,0,0,0,11.79,7c11.92,5.9,26,6.87,38.85,3.58,2.67-.48,4.65-2.36,6.17-4.5a43.47,43.47,0,0,0,8,6.06l-3.54,1.21a54.87,54.87,0,0,1-8.73,17.13c-2,2.82-4.52,5.33-5.72,8.61a67,67,0,0,0-1.68,10.93c4.17-4,7.77-8.76,9.54-14.33l1.67-1.35a31.81,31.81,0,0,0,1.87,2.61c2.4.33,4.62-.88,6.73-1.83,7.47-2.85,11.9-10.87,11.17-18.71-1.93-.11-3.86-.22-5.79-.4,4.34-3.14,9.71-5.21,12.79-9.8,2.69-4.22,2.66-9.52,2.11-14.32-1-5.42-4.56-11.1-10.28-12.33a37.9,37.9,0,0,0-6,3.21c2.11-3.75,4.57-7.48,5.18-11.83.63-6.56-3.54-14-10.2-15.65A20,20,0,0,0,138,39c.58-7.62-.39-15.92-5.61-21.9-5.41-6.74-14.81-8.3-23-7.48C102.78,10.18,97.07,14.43,93.06,19.57Zm-7,82.9c-1.69,7.79,2.78,15.43,8.08,20.79v.67l2.88-.52L98.57,127c.83,6.27,2.5,12.62,6,18,1.67,2.85,6.07,2.35,7.68-.31,4.81-6.54,7.19-14.68,8.34-22.64.3-6,.86-13-3.22-17.86-2.07-2.6-5.41-.64-8-.06.47,1.25,1,2.51,1.44,3.77-.15.62-.45,1.88-.61,2.5l-1.57-.34c-1.39-5.17-6.73-7.89-11.42-9.44C93.58,100.24,88.74,99.33,86.06,102.47Zm-7.29,37.91a63.38,63.38,0,0,0-1.6,7.48l-5.52-.47c.06,7.44.48,15.23,4.07,21.92,1-4.7,1.71-9.47,2.78-14.16a38.93,38.93,0,0,0,7.74,1.7A33.06,33.06,0,0,0,90.63,146C87.51,143.08,82.69,142.18,78.77,140.38Z" transform="translate(-26.81 -4.3)"/><path class="cls-2" d="M93.06,19.57c4-5.14,9.72-9.39,16.39-10,8.15-.82,17.55.74,23,7.48,5.22,6,6.19,14.28,5.61,21.9a20,20,0,0,1,3.54-4.59c6.66,1.63,10.83,9.09,10.2,15.65-.61,4.35-3.07,8.08-5.18,11.83a37.9,37.9,0,0,1,6-3.21c5.72,1.23,9.27,6.91,10.28,12.33.55,4.8.58,10.1-2.11,14.32-3.08,4.59-8.45,6.66-12.79,9.8,1.93.18,3.86.29,5.79.4.73,7.84-3.7,15.86-11.17,18.71-2.26.41-4.54.69-6.81,1,.54-3.17,1-6.35,1.3-9.56a29,29,0,0,0-4.76,9.13c-1.77,5.57-5.37,10.32-9.54,14.33a67,67,0,0,1,1.68-10.93c1.2-3.28,3.76-5.79,5.72-8.61a54.87,54.87,0,0,0,8.73-17.13l3.54-1.21a43.47,43.47,0,0,1-8-6.06c-1.52,2.14-3.5,4-6.17,4.5C115.49,93,101.37,92,89.45,86.1a70.54,70.54,0,0,1-11.79-7q1.38-2,2.73-4a42.74,42.74,0,0,1-18.25,3.57c1.88.86,3.8,1.63,5.74,2.36.67,6.56,1,13.27,3.3,19.52A59.81,59.81,0,0,0,85.44,123c3.11,3,7.28,4.58,10.37,7.58,1,2.47,1.08,5.2,1.32,7.83-7.26-.36-14.63-2.2-20.52-6.63-5.78-4.61-11.1-10.13-14-17.06-3.53-6.75-4.08-14.45-4.91-21.88a49.29,49.29,0,0,0-1.6,13.83c-3.81-.15-8,.05-11.28-2.13A18.65,18.65,0,0,1,37.29,92c-.32-3.13.45-6.22.78-9.31.88-.58,1.75-1.15,2.63-1.71,4.87.62,10,1.45,14.63-.77-1.72-.48-3.44-.91-5.17-1.34C41.7,77.64,35,70.23,33.82,61.93c-.41-4.84-.48-10.16,2.31-14.37s7-8,12.31-8.71c5.61-1.18,11,1.22,16.29,2.75a18.77,18.77,0,0,0-7.11-5.42c.48-6.8,5.59-12.56,11.4-15.67,5.4-2.91,11.66-1.77,17.42-.87,0,4.11-.93,8.39.68,12.32C89.08,27.83,90.22,23.24,93.06,19.57Zm11.2,13.14c3.76-.25,7.49-1.1,11.28-.91,3.54.43,6.79,2,10.19,3-1.56-2.1-3.42-4.18-6.08-4.83C114.5,28.59,108.22,28.61,104.26,32.71ZM90.45,47.88c-1.59,3.33-2.15,7-3.66,10.4-1,2.6-4.2,2.66-6.39,3.66,2.41.62,4.83,1.2,7.25,1.77-.58,1.89-1.23,3.76-1.87,5.63a32.58,32.58,0,0,0,4,1.19l0,1.14c6.12.1,12.94.78,18.08-3.26a142.42,142.42,0,0,0-14.3.79l-.26-.85C95.07,66,96.5,62.8,99.62,62c5.54-1.51,11.35-1.31,17-1.32,4.17,1.07,7.8,3.41,11.22,5.93,1.77,1.56,4.18.68,6.27.63-.43,2.15-.84,5.3-3.72,5.22-3.83-.53-7.25-2.63-11.09-3.22a16.92,16.92,0,0,0,11.08,5.48c2.38.14,3.84-2.1,5.54-3.4,1-4.69-4.14-8-2.68-12.61,1.15-5.17.87-10.85-2.18-15.34-1.78-3.29-5.24-5-8.5-6.41,2.73,2.77,5.57,5.52,7.35,9-3.21-1.82-6-4.71-9.68-5.48-5.67-.62-11.8-.62-16.81,2.47-5.24,2.54-8.25,7.77-12.76,11.22,1.94-6.24,5.58-12.31,11.42-15.59,2.83-1.44,5.78-2.65,8.56-4.22A23.85,23.85,0,0,0,90.45,47.88Z" transform="translate(-26.81 -4.3)"/><path class="cls-3" d="M104.26,32.71c4-4.1,10.24-4.12,15.39-2.74,2.66.65,4.52,2.73,6.08,4.83-3.4-1-6.65-2.57-10.19-3C111.75,31.61,108,32.46,104.26,32.71Z" transform="translate(-26.81 -4.3)"/><path class="cls-3" d="M93.47,69.2a142.42,142.42,0,0,1,14.3-.79c-5.14,4-12,3.36-18.08,3.26l0-1.14c2.46.19,4.93.18,7.39.16C95.91,70.18,94.69,69.69,93.47,69.2Z" transform="translate(-26.81 -4.3)"/><path class="cls-3" d="M132.3,114.79a29,29,0,0,1,4.76-9.13c-.28,3.21-.76,6.39-1.3,9.56,2.27-.31,4.55-.59,6.81-1-2.11,1-4.33,2.16-6.73,1.83a31.81,31.81,0,0,1-1.87-2.61Z" transform="translate(-26.81 -4.3)"/><path class="cls-4" d="M90.45,47.88a23.85,23.85,0,0,1,20.24-13.51c-2.78,1.57-5.73,2.78-8.56,4.22-5.84,3.28-9.48,9.35-11.42,15.59,4.51-3.45,7.52-8.68,12.76-11.22,5-3.09,11.14-3.09,16.81-2.47,3.72.77,6.47,3.66,9.68,5.48-1.78-3.51-4.62-6.26-7.35-9,3.26,1.46,6.72,3.12,8.5,6.41,3,4.49,3.33,10.17,2.18,15.34-1.46,4.6,3.7,7.92,2.68,12.61-.62-1.35-1.22-2.72-1.81-4.08-2.09,0-4.5.93-6.27-.63-3.42-2.52-7-4.86-11.22-5.93a53.56,53.56,0,0,0-10.33-1.21c3.82-.16,7.64-.52,11.46-.64,4.48.75,8.3,3.32,12.13,5.59.59-6.11.44-12.54-3.15-17.79-2.67,2.86-5.45,7.28-10,6.15-4.82-.45-5.38-6-6.17-9.74C103,46.17,95.55,51.29,92,59c-1,2.61-1.87,5.25-2.7,7.9L92.5,66c.18.58.53,1.74.71,2.33l.26.85c1.22.49,2.44,1,3.65,1.49-2.46,0-4.93,0-7.39-.16a32.58,32.58,0,0,1-4-1.19c.64-1.87,1.29-3.74,1.87-5.63-2.42-.57-4.84-1.15-7.25-1.77,2.19-1,5.4-1.06,6.39-3.66C88.3,54.92,88.86,51.21,90.45,47.88Zm29.41-3.61A31.92,31.92,0,0,0,119,47.9l4-.48.27-3.77C122.1,43.84,121,44,119.86,44.27Z" transform="translate(-26.81 -4.3)"/><path class="cls-5" d="M92,59c3.53-7.66,11-12.78,18.55-15.93.79,3.73,1.35,9.29,6.17,9.74,4.59,1.13,7.37-3.29,10-6.15,3.59,5.25,3.74,11.68,3.15,17.79-3.83-2.27-7.65-4.84-12.13-5.59-6-1.14-12.16-.48-18.22-.15C97.06,58.77,94.54,58.83,92,59Z" transform="translate(-26.81 -4.3)"/><path class="cls-6" d="M119.86,44.27c1.11-.23,2.24-.43,3.36-.62L123,47.42l-4,.48A31.92,31.92,0,0,1,119.86,44.27Z" transform="translate(-26.81 -4.3)"/><path class="cls-7" d="M92,59c2.52-.12,5-.18,7.56-.29A38.59,38.59,0,0,0,92.5,66l-3.18.83C90.15,64.2,91,61.56,92,59Z" transform="translate(-26.81 -4.3)"/><path class="cls-8" d="M99.58,58.66c6.06-.33,12.21-1,18.22.15-3.82.12-7.64.48-11.46.64a53.56,53.56,0,0,1,10.33,1.21c-5.7,0-11.51-.19-17,1.32-3.12.82-4.55,4-6.41,6.37-.18-.59-.53-1.75-.71-2.33A38.59,38.59,0,0,1,99.58,58.66Z" transform="translate(-26.81 -4.3)"/><path class="cls-9" d="M134.16,67.22c.59,1.36,1.19,2.73,1.81,4.08-1.7,1.3-3.16,3.54-5.54,3.4a16.92,16.92,0,0,1-11.08-5.48c3.84.59,7.26,2.69,11.09,3.22C133.32,72.52,133.73,69.37,134.16,67.22Z" transform="translate(-26.81 -4.3)"/><path class="cls-10" d="M39.87,79.65c3.47.16,7.13,1.3,10.29-.77,1.73.43,3.45.86,5.17,1.34-4.61,2.22-9.76,1.39-14.63.77-.88.56-1.75,1.13-2.63,1.71C38.66,81.67,39.21,80.63,39.87,79.65Z" transform="translate(-26.81 -4.3)"/><path class="cls-11" d="M86.06,102.47c2.68-3.14,7.52-2.23,11.15-1.84,4.69,1.55,10,4.27,11.42,9.44,2.83,8.11,1.34,16.73,1.06,25.08,3.84-8.5,5.08-18.54,1.12-27.24-.48-1.26-1-2.52-1.44-3.77,2.55-.58,5.89-2.54,8,.06,4.08,4.89,3.52,11.9,3.22,17.86-1.15,8-3.53,16.1-8.34,22.64-1.61,2.66-6,3.16-7.68.31-3.46-5.37-5.13-11.72-6-18-.84-5.9-1-11.94-2.57-17.71-.55-2.16-2.64-3.31-4.19-4.69,1.1,6.16,2.74,12.32,2.33,18.64C88.84,117.9,84.37,110.26,86.06,102.47Z" transform="translate(-26.81 -4.3)"/><path class="cls-12" d="M91.81,104.62c1.55,1.38,3.64,2.53,4.19,4.69,1.56,5.77,1.73,11.81,2.57,17.71L97,123.41l-2.88.52v-.67C94.55,116.94,92.91,110.78,91.81,104.62Z" transform="translate(-26.81 -4.3)"/><path class="cls-13" d="M110.81,107.91c4,8.7,2.72,18.74-1.12,27.24.28-8.35,1.77-17-1.06-25.08l1.57.34C110.36,109.79,110.66,108.53,110.81,107.91Z" transform="translate(-26.81 -4.3)"/><path class="cls-14" d="M78.77,140.38c3.92,1.8,8.74,2.7,11.86,5.61a33.06,33.06,0,0,1-4.39,10.86,38.93,38.93,0,0,1-7.74-1.7c-1.07,4.69-1.74,9.46-2.78,14.16-3.59-6.69-4-14.48-4.07-21.92l5.52.47A63.38,63.38,0,0,1,78.77,140.38Z" transform="translate(-26.81 -4.3)"/></svg>